<?xml version="1.0" encoding="UTF-8" standalone="no"?>
<!DOCTYPE svg PUBLIC "-//W3C//DTD SVG 1.1//EN" "http://www.w3.org/Graphics/SVG/1.1/DTD/svg11.dtd">
<svg width="100%" height="100%" viewBox="0 0 538 180" version="1.1" xmlns="http://www.w3.org/2000/svg" xmlns:xlink="http://www.w3.org/1999/xlink" xml:space="preserve" xmlns:serif="http://www.serif.com/" style="fill-rule:evenodd;clip-rule:evenodd;stroke-linejoin:round;stroke-miterlimit:2;">
    <g transform="matrix(1,0,0,1,-131.415625,-307.110212)">
        <g transform="matrix(1,0,0,1,-383.915625,-522.000696)">
            <path d="M783.916,889.115C779.019,889.02 774.116,889.293 772.4,890C768.3,891.6 766.4,895.5 765.1,904.7C759.6,942 753,963.7 742.7,978.2C736,987.5 716.253,998.659 713.249,1000.5C711.902,1001.325 698.2,1005.7 694.4,1006.6C689.4,1007.7 680.2,1008.3 660.7,1008.7C621,1009.5 606.5,1007.6 589,999.3C580.9,995.4 578.3,993.5 571,986.1C555.4,970.4 549.4,954.3 542.5,910C540.4,896.9 539.5,893.1 537.8,891.3C535.8,889.2 534.7,889 525.8,889C518.6,889 515.8,889.4 515.4,890.3C515.2,891 515.5,856.5 515.5,856.5L543.9,856.5L551.2,848.8C566.4,832.9 577.7,830.5 641,829.3C673.3,828.7 694.3,829.5 717.5,832.1C735.9,834.1 746.9,839.4 757.3,851.1L762.9,857.5L783.916,857.403L804.931,857.5L810.531,851.1C820.931,839.4 831.931,834.1 850.331,832.1C873.531,829.5 894.531,828.7 926.831,829.3C990.131,830.5 1001.431,832.9 1016.631,848.8L1023.931,856.5L1052.331,856.5C1052.331,856.5 1052.631,891 1052.431,890.3C1052.031,889.4 1049.231,889 1042.031,889C1033.131,889 1032.031,889.2 1030.031,891.3C1028.331,893.1 1027.431,896.9 1025.331,910C1018.431,954.3 1012.431,970.4 996.831,986.1C989.531,993.5 986.931,995.4 978.831,999.3C961.331,1007.6 946.831,1009.5 907.131,1008.7C887.631,1008.3 878.431,1007.7 873.431,1006.6C869.631,1005.7 855.929,1001.325 854.582,1000.5C851.578,998.659 831.831,987.5 825.131,978.2C814.831,963.7 808.231,942 802.731,904.7C801.431,895.5 799.531,891.6 795.431,890C793.715,889.293 788.813,889.02 783.916,889.115ZM857.831,861.3C845.631,862.9 841.031,864.8 836.431,870.2C829.831,877.9 829.731,885.1 835.931,918.2C839.131,935.2 842.731,947.9 846.031,953.8C852.331,964.7 862.031,972.5 873.831,976C886.331,979.7 911.131,980.9 935.931,979C956.631,977.4 966.031,973.9 975.331,964.6C984.631,955.4 989.031,942.9 994.231,912C999.031,882.5 998.831,876.3 992.231,869C987.631,863.9 982.531,862.4 966.331,861C959.131,860.5 951.331,859.8 948.831,859.6C938.331,858.7 867.831,860 857.831,861.3ZM710,861.3C700,860 629.5,858.7 619,859.6C616.5,859.8 608.7,860.5 601.5,861C585.3,862.4 580.2,863.9 575.6,869C569,876.3 568.8,882.5 573.6,912C578.8,942.9 583.2,955.4 592.5,964.6C601.8,973.9 611.2,977.4 631.9,979C656.7,980.9 681.5,979.7 694,976C705.8,972.5 715.5,964.7 721.8,953.8C725.1,947.9 728.7,935.2 731.9,918.2C738.1,885.1 738,877.9 731.4,870.2C726.8,864.8 722.2,862.9 710,861.3Z" style="fill:rgb(39,39,42);"/>
        </g>
    </g>
</svg>
