<?xml version="1.0" encoding="UTF-8" standalone="no"?>
<!DOCTYPE svg PUBLIC "-//W3C//DTD SVG 1.1//EN" "http://www.w3.org/Graphics/SVG/1.1/DTD/svg11.dtd">
<svg width="726" height="173" viewBox="0 0 726 173" version="1.1" xmlns="http://www.w3.org/2000/svg" xmlns:xlink="http://www.w3.org/1999/xlink" xml:space="preserve" xmlns:serif="http://www.serif.com/" style="fill:#111827;fill-rule:evenodd;clip-rule:evenodd;stroke-linecap:round;stroke-linejoin:round;">
    <g transform="matrix(1,0,0,1,-94.472921,-26.281746)">
        <g transform="matrix(11.386256,0,0,11.386256,-611.066181,-930.452179)">
            <path d="M67.82,86.3L61.964,86.3L61.964,94.7L67.82,94.7C68.276,94.7 68.66,94.328 68.66,93.872L68.66,87.14C68.66,86.684 68.276,86.3 67.82,86.3ZM65.828,93.428L64.796,93.428L64.796,87.572L65.828,87.572L65.828,93.428Z"/>
        </g>
        <g transform="matrix(11.386256,0,0,11.386256,-611.066181,-930.452179)">
            <rect x="69.596" y="86.3" width="2.832" height="8.4"/>
        </g>
        <g transform="matrix(11.386256,0,0,11.386256,-611.066181,-930.452179)">
            <path d="M79.244,86.3L73.388,86.3L73.388,94.7L76.22,94.7L76.22,91.988L77.24,94.7L80.072,94.7L78.956,92.024L79.244,92.024C79.7,92.024 80.084,91.652 80.084,91.184L80.084,87.14C80.084,86.684 79.7,86.3 79.244,86.3ZM77.252,87.572L77.252,90.752L76.22,90.752L76.22,87.572L77.252,87.572Z"/>
        </g>
        <g transform="matrix(11.386256,0,0,11.386256,-611.066181,-930.452179)">
            <path d="M80.924,86.3L80.924,94.7L86.144,94.7L86.144,93.428L83.756,93.428L83.756,90.872L85.484,90.872L85.484,89.6L83.756,89.6L83.756,87.572L86.144,87.572L86.144,86.3L80.924,86.3Z"/>
        </g>
        <g transform="matrix(11.386256,0,0,11.386256,-611.066181,-930.452179)">
            <path d="M86.624,86.3L86.624,87.572L88.376,87.572L88.376,94.7L91.208,94.7L91.208,87.572L92.96,87.572L92.96,86.3L86.624,86.3Z"/>
        </g>
        <g transform="matrix(11.386256,0,0,11.386256,-611.066181,-930.452179)">
            <path d="M99.452,86.3L94.436,86.3C93.968,86.3 93.596,86.684 93.596,87.14L93.596,93.86C93.596,94.328 93.968,94.7 94.436,94.7L99.452,94.7C99.908,94.7 100.292,94.328 100.292,93.86L100.292,87.14C100.292,86.684 99.908,86.3 99.452,86.3ZM97.46,93.428L96.428,93.428L96.428,87.572L97.46,87.572L97.46,93.428Z"/>
        </g>
        <g transform="matrix(11.386256,0,0,11.386256,-611.066181,-930.452179)">
            <path d="M107.084,86.3L101.228,86.3L101.228,94.7L104.06,94.7L104.06,91.988L105.08,94.7L107.912,94.7L106.796,92.024L107.084,92.024C107.54,92.024 107.924,91.652 107.924,91.184L107.924,87.14C107.924,86.684 107.54,86.3 107.084,86.3ZM105.092,87.572L105.092,90.752L104.06,90.752L104.06,87.572L105.092,87.572Z"/>
        </g>
        <g transform="matrix(11.386256,0,0,11.386256,-611.066181,-930.452179)">
            <rect x="112.496" y="86.3" width="2.832" height="8.4"/>
        </g>
        <g transform="matrix(11.386256,0,0,11.386256,-611.066181,-930.452179)">
            <g transform="matrix(-1,0,0,1,239.224195,0)">
                <path d="M116.288,87.14L116.288,94.7L119.12,94.7L119.12,90.872L120.104,90.872L120.104,94.7L122.936,94.7L122.936,86.3L117.128,86.3C116.66,86.3 116.288,86.684 116.288,87.14ZM119.12,87.572L120.104,87.572L120.104,89.6L119.12,89.6L119.12,87.572Z"/>
            </g>
        </g>
        <g transform="matrix(8.253195,0,0,8.232801,630.351873,9.826347)">
            <path d="M22,17C22,18.097 21.097,19 20,19L6.828,19C6.298,19 5.789,19.211 5.414,19.586L3.212,21.788C3.079,21.921 2.898,21.996 2.71,21.996C2.321,21.996 2,21.675 2,21.286L2,5C2,3.903 2.903,3 4,3L20,3C21.097,3 22,3.903 22,5L22,17Z" style="fill:none;fill-rule:nonzero;stroke:#111827;stroke-width:2px;"/>
        </g>
    </g>
</svg>
