<?xml version="1.0" encoding="UTF-8" standalone="no"?>
<!DOCTYPE svg PUBLIC "-//W3C//DTD SVG 1.1//EN" "http://www.w3.org/Graphics/SVG/1.1/DTD/svg11.dtd">
<svg width="668" height="163" viewBox="0 0 668 163" version="1.1" xmlns="http://www.w3.org/2000/svg" xmlns:xlink="http://www.w3.org/1999/xlink" xml:space="preserve" xmlns:serif="http://www.serif.com/" style="fill:#111827;fill-rule:evenodd;clip-rule:evenodd;stroke-linecap:round;stroke-linejoin:round;">
    <g transform="matrix(1,0,0,1,-147.903365,-31.524751)">
        <g transform="matrix(8.253195,0,0,8.232801,630.351873,9.826347)">
            <path d="M22,17C22,18.097 21.097,19 20,19L6.828,19C6.298,19 5.789,19.211 5.414,19.586L3.212,21.788C3.079,21.921 2.898,21.996 2.71,21.996C2.321,21.996 2,21.675 2,21.286L2,5C2,3.903 2.903,3 4,3L20,3C21.097,3 22,3.903 22,5L22,17Z" style="fill:none;fill-rule:nonzero;stroke:#111827;stroke-width:0.73px;"/>
        </g>
        <g transform="matrix(11.559075,0,0,11.559075,-1500.576476,-848.064658)">
            <path d="M147.653,77.819L142.613,77.819L142.613,86.219L147.653,86.219C148.109,86.219 148.493,85.847 148.493,85.391L148.493,78.659C148.493,78.203 148.109,77.819 147.653,77.819ZM146.297,85.091L144.809,85.091L144.809,78.947L146.297,78.947L146.297,85.091Z" style="fill-rule:nonzero;"/>
        </g>
        <g transform="matrix(11.559075,0,0,11.559075,-1500.576476,-848.064658)">
            <rect x="149.585" y="77.819" width="2.196" height="8.4" style="fill-rule:nonzero;"/>
        </g>
        <g transform="matrix(11.559075,0,0,11.559075,-1500.576476,-848.064658)">
            <path d="M157.853,77.819L152.897,77.819L152.897,86.219L155.093,86.219L155.093,83.471L156.461,86.219L158.693,86.219L157.265,83.495L157.853,83.495C158.309,83.495 158.693,83.123 158.693,82.655L158.693,78.659C158.693,78.203 158.309,77.819 157.853,77.819ZM156.497,78.947L156.497,82.367L155.093,82.367L155.093,78.947L156.497,78.947Z" style="fill-rule:nonzero;"/>
        </g>
        <g transform="matrix(11.559075,0,0,11.559075,-1500.576476,-848.064658)">
            <path d="M159.701,77.819L159.701,86.219L164.453,86.219L164.453,85.091L161.897,85.091L161.897,82.319L163.829,82.319L163.829,81.191L161.897,81.191L161.897,78.947L164.453,78.947L164.453,77.819L159.701,77.819Z" style="fill-rule:nonzero;"/>
        </g>
        <g transform="matrix(11.559075,0,0,11.559075,-1500.576476,-848.064658)">
            <path d="M165.017,77.819L165.017,78.947L166.781,78.947L166.781,86.219L168.977,86.219L168.977,78.947L170.741,78.947L170.741,77.819L165.017,77.819Z" style="fill-rule:nonzero;"/>
        </g>
        <g transform="matrix(11.559075,0,0,11.559075,-1500.576476,-848.064658)">
            <path d="M176.501,77.819L172.325,77.819C171.857,77.819 171.485,78.203 171.485,78.659L171.485,85.379C171.485,85.847 171.857,86.219 172.325,86.219L176.501,86.219C176.957,86.219 177.341,85.847 177.341,85.379L177.341,78.659C177.341,78.203 176.957,77.819 176.501,77.819ZM175.145,85.091L173.681,85.091L173.681,78.947L175.145,78.947L175.145,85.091Z" style="fill-rule:nonzero;"/>
        </g>
        <g transform="matrix(11.559075,0,0,11.559075,-1500.576476,-848.064658)">
            <path d="M183.389,77.819L178.433,77.819L178.433,86.219L180.629,86.219L180.629,83.471L181.997,86.219L184.229,86.219L182.801,83.495L183.389,83.495C183.845,83.495 184.229,83.123 184.229,82.655L184.229,78.659C184.229,78.203 183.845,77.819 183.389,77.819ZM182.033,78.947L182.033,82.367L180.629,82.367L180.629,78.947L182.033,78.947Z" style="fill-rule:nonzero;"/>
        </g>
        <g transform="matrix(11.559075,0,0,11.559075,-1500.576476,-848.064658)">
            <rect x="188.633" y="77.819" width="2.196" height="8.4" style="fill-rule:nonzero;"/>
        </g>
        <g transform="matrix(-11.559075,0,0,11.559075,3004.26032,-848.064658)">
            <path d="M191.945,78.659L191.945,86.219L194.141,86.219L194.141,82.319L195.581,82.319L195.581,86.219L197.777,86.219L197.777,77.819L192.785,77.819C192.317,77.819 191.945,78.203 191.945,78.659ZM194.141,78.947L195.581,78.947L195.581,81.191L194.141,81.191L194.141,78.947Z" style="fill-rule:nonzero;"/>
        </g>
    </g>
</svg>
