<?xml version="1.0" encoding="UTF-8" standalone="no"?>
<!DOCTYPE svg PUBLIC "-//W3C//DTD SVG 1.1//EN" "http://www.w3.org/Graphics/SVG/1.1/DTD/svg11.dtd">
<svg width="564" height="150" viewBox="0 0 564 150" version="1.1" xmlns="http://www.w3.org/2000/svg" xmlns:xlink="http://www.w3.org/1999/xlink" xml:space="preserve" xmlns:serif="http://www.serif.com/" style="fill:#111827;fill-rule:evenodd;clip-rule:evenodd;stroke-linecap:round;stroke-linejoin:round;">
    <g transform="matrix(1,0,0,1,-108.63063,-37.815305)">
        <g transform="matrix(0.513486,0,0,0.513486,65.21433,42.633339)">
            <path d="M84.552,177.385L84.552,46.055L117.163,46.055C125.582,46.055 132.865,47.682 139.01,50.937C145.155,54.191 149.928,58.764 153.329,64.658C156.732,70.55 158.434,77.498 158.434,85.502L158.434,137.806C158.434,145.81 156.732,152.78 153.329,158.717C149.928,164.654 145.155,169.25 139.01,172.505C132.865,175.759 125.582,177.385 117.163,177.385L84.552,177.385ZM98.826,164.623L117.163,164.623C125.494,164.623 132.077,162.237 136.91,157.464C141.745,152.69 144.162,146.138 144.162,137.806L144.162,85.502C144.162,77.29 141.737,70.79 136.887,66.002C132.037,61.212 125.463,58.817 117.163,58.817L98.826,58.817L98.826,164.623Z" style="fill-rule:nonzero;"/>
        </g>
        <g transform="matrix(0.513486,0,0,0.513486,65.21433,42.633339)">
            <path d="M194.69,177.385L194.69,164.359L221.831,164.359L221.831,59.033L194.69,59.033L194.69,46.007L263.414,46.007L263.414,59.033L236.369,59.033L236.369,164.359L263.414,164.359L263.414,177.385L194.69,177.385Z" style="fill-rule:nonzero;"/>
        </g>
        <g transform="matrix(0.513486,0,0,0.513486,65.21433,42.633339)">
            <path d="M300.438,177.385L300.438,46.055L340.09,46.055C347.886,46.055 354.69,47.612 360.503,50.727C366.316,53.841 370.818,58.194 374.007,63.784C377.197,69.372 378.792,75.927 378.792,83.45C378.792,92.486 376.387,100.183 371.579,106.539C366.77,112.896 360.232,117.129 351.963,119.239L380.352,177.385L363.489,177.385L337.102,120.656L314.712,120.656L314.712,177.385L300.438,177.385ZM314.712,107.81L340.09,107.81C347.35,107.81 353.17,105.569 357.552,101.089C361.933,96.606 364.124,90.695 364.124,83.354C364.124,75.895 361.933,69.963 357.552,65.558C353.17,61.152 347.35,58.949 340.09,58.949L314.712,58.949L314.712,107.81Z" style="fill-rule:nonzero;"/>
        </g>
        <g transform="matrix(0.513486,0,0,0.513486,65.21433,42.633339)">
            <path d="M409.915,177.385L409.915,46.055L484.036,46.055L484.036,59.081L424.057,59.081L424.057,102.376L477.739,102.376L477.739,115.222L424.057,115.222L424.057,164.359L484.036,164.359L484.036,177.385L409.915,177.385Z" style="fill-rule:nonzero;"/>
        </g>
        <g transform="matrix(0.513486,0,0,0.513486,65.21433,42.633339)">
            <path d="M545.791,177.385L545.791,58.949L509.043,58.949L509.043,45.923L596.718,45.923L596.718,58.949L560.065,58.949L560.065,177.385L545.791,177.385Z" style="fill-rule:nonzero;"/>
        </g>
        <g transform="matrix(0.513486,0,0,0.513486,65.21433,42.633339)">
            <path d="M660.823,179.184C653.13,179.184 646.492,177.693 640.907,174.712C635.323,171.728 631.025,167.429 628.013,161.812C625.003,156.194 623.499,149.551 623.499,141.885L623.499,81.555C623.499,73.8 625.003,67.145 628.013,61.588C631.025,56.03 635.323,51.752 640.907,48.753C646.492,45.755 653.13,44.256 660.823,44.256C668.516,44.256 675.155,45.755 680.739,48.753C686.324,51.752 690.621,56.03 693.631,61.588C696.642,67.145 698.148,73.756 698.148,81.423L698.148,141.885C698.148,149.551 696.642,156.194 693.631,161.812C690.621,167.429 686.331,171.728 680.762,174.712C675.194,177.693 668.548,179.184 660.823,179.184ZM660.823,166.386C668.22,166.386 673.911,164.257 677.897,159.999C681.883,155.741 683.876,149.703 683.876,141.885L683.876,81.555C683.876,73.737 681.875,67.699 677.872,63.441C673.871,59.183 668.188,57.054 660.823,57.054C653.547,57.054 647.885,59.183 643.839,63.441C639.793,67.699 637.77,73.737 637.77,81.555L637.77,141.885C637.77,149.703 639.785,155.741 643.814,159.999C647.845,164.257 653.515,166.386 660.823,166.386Z" style="fill-rule:nonzero;"/>
        </g>
        <g transform="matrix(0.513486,0,0,0.513486,65.21433,42.633339)">
            <path d="M732.209,177.385L732.209,46.055L771.861,46.055C779.657,46.055 786.461,47.612 792.275,50.727C798.088,53.841 802.589,58.194 805.779,63.784C808.968,69.372 810.563,75.927 810.563,83.45C810.563,92.486 808.159,100.183 803.35,106.539C798.541,112.896 792.003,117.129 783.735,119.239L812.123,177.385L795.26,177.385L768.873,120.656L746.483,120.656L746.483,177.385L732.209,177.385ZM746.483,107.81L771.861,107.81C779.121,107.81 784.942,105.569 789.323,101.089C793.704,96.606 795.895,90.695 795.895,83.354C795.895,75.895 793.704,69.963 789.323,65.558C784.942,61.152 779.121,58.949 771.861,58.949L746.483,58.949L746.483,107.81Z" style="fill-rule:nonzero;"/>
        </g>
        <g transform="matrix(0.513486,0,0,0.513486,65.21433,42.633339)">
            <path d="M950.29,177.385L950.29,164.359L977.43,164.359L977.43,59.033L950.29,59.033L950.29,46.007L1019.014,46.007L1019.014,59.033L991.969,59.033L991.969,164.359L1019.014,164.359L1019.014,177.385L950.29,177.385Z" style="fill-rule:nonzero;"/>
        </g>
        <g transform="matrix(0.513486,0,0,0.513486,65.21433,42.633339)">
            <path d="M1048.481,177.385L1083.192,46.055L1102.129,46.055L1136.708,177.385L1122.206,177.385L1113.188,141.716L1072.038,141.716L1063.017,177.385L1048.481,177.385ZM1074.989,129.531L1110.104,129.531L1098.928,85.693C1097.072,78.337 1095.613,72.185 1094.548,67.236C1093.486,62.286 1092.834,59.064 1092.595,57.569C1092.355,59.064 1091.695,62.286 1090.616,67.236C1089.536,72.185 1088.069,78.293 1086.214,85.561L1074.989,129.531Z" style="fill-rule:nonzero;"/>
        </g>
        <g transform="matrix(7.088375,0,0,7.521717,513.438123,18.400155)">
            <path d="M22,17C22,18.097 21.097,19 20,19L6.828,19C6.298,19 5.789,19.211 5.414,19.586L3.212,21.788C3.079,21.921 2.898,21.996 2.71,21.996C2.321,21.996 2,21.675 2,21.286L2,5C2,3.903 2.903,3 4,3L20,3C21.097,3 22,3.903 22,5L22,17Z" style="fill:none;fill-rule:nonzero;stroke:#111827;stroke-width:0.86px;"/>
        </g>
    </g>
</svg>
