<?xml version="1.0" encoding="UTF-8" standalone="no"?>
<!DOCTYPE svg PUBLIC "-//W3C//DTD SVG 1.1//EN" "http://www.w3.org/Graphics/SVG/1.1/DTD/svg11.dtd">
<svg width="100%" height="100%" viewBox="0 0 965 115" version="1.1" xmlns="http://www.w3.org/2000/svg" xmlns:xlink="http://www.w3.org/1999/xlink" xml:space="preserve" xmlns:serif="http://www.serif.com/" style="fill-rule:evenodd;clip-rule:evenodd;stroke-linejoin:round;stroke-miterlimit:2;">
    <g transform="matrix(1,0,0,1,-18.401494,-42.90123)">
        <g transform="matrix(3.262858,0,0,3.262858,-277.983475,-216.456827)">
            <g transform="matrix(1,0,0,1,87.986,114.488)">
                <path d="M30.35,-35L2.85,-35L2.85,0L30.35,0C32.25,0 33.85,-1.55 33.85,-3.45L33.85,-31.5C33.85,-33.4 32.25,-35 30.35,-35ZM24.6,-4.7L12.05,-4.7L12.05,-30.3L24.6,-30.3L24.6,-4.7Z"/>
                <rect x="39.4" y="-35" width="9.2" height="35"/>
                <path d="M81.2,-35L54.3,-35L54.3,0L63.5,0L63.5,-11.65L74.3,0L85,0L74.05,-11.55L81.2,-11.55C83.1,-11.55 84.7,-13.1 84.7,-15.05L84.7,-31.5C84.7,-33.4 83.1,-35 81.2,-35ZM75.5,-30.3L75.5,-16.3L63.5,-16.3L63.5,-30.3L75.5,-30.3Z"/>
                <path d="M89.95,-35L89.95,0L115.95,0L115.95,-4.7L99.15,-4.7L99.15,-16.25L112.6,-16.25L112.6,-20.95L99.15,-20.95L99.15,-30.3L115.95,-30.3L115.95,-35L89.95,-35Z"/>
                <path d="M118.55,-35L118.55,-30.3L128.95,-30.3L128.95,0L138.2,0L138.2,-30.3L148.6,-30.3L148.6,-35L118.55,-35Z"/>
                <path d="M179.4,-35L155.75,-35C153.8,-35 152.25,-33.4 152.25,-31.5L152.25,-3.5C152.25,-1.55 153.8,0 155.75,0L179.4,0C181.3,0 182.9,-1.55 182.9,-3.5L182.9,-31.5C182.9,-33.4 181.3,-35 179.4,-35ZM173.7,-4.7L161.5,-4.7L161.5,-30.3L173.7,-30.3L173.7,-4.7Z"/>
                <path d="M215.4,-35L188.5,-35L188.5,0L197.7,0L197.7,-11.65L208.5,0L219.2,0L208.25,-11.55L215.4,-11.55C217.3,-11.55 218.9,-13.1 218.9,-15.05L218.9,-31.5C218.9,-33.4 217.3,-35 215.4,-35ZM209.7,-30.3L209.7,-16.3L197.7,-16.3L197.7,-30.3L209.7,-30.3Z"/>
            </g>
            <g transform="matrix(1,0,0,1,326.986,114.488)">
                <rect x="2.5" y="-35" width="13.45" height="35"/>
                <path d="M20.9,-31.5L20.9,0L34.4,0L34.4,-15.8L45.85,-15.8L45.85,0L59.35,0L59.35,-35L24.4,-35C22.45,-35 20.9,-33.4 20.9,-31.5ZM34.4,-29.35L45.85,-29.35L45.85,-21.4L34.4,-21.4L34.4,-29.35Z"/>
            </g>
        </g>
    </g>
</svg>
