<?xml version="1.0" encoding="UTF-8" standalone="no"?>
<!DOCTYPE svg PUBLIC "-//W3C//DTD SVG 1.1//EN" "http://www.w3.org/Graphics/SVG/1.1/DTD/svg11.dtd">
<svg width="450" height="500" viewBox="0 0 450 500" version="1.1" xmlns="http://www.w3.org/2000/svg" xmlns:xlink="http://www.w3.org/1999/xlink" xml:space="preserve" xmlns:serif="http://www.serif.com/" style="fill:#111827;fill-rule:evenodd;clip-rule:evenodd;stroke-linejoin:round;stroke-miterlimit:2;">
    <g transform="matrix(1,0,0,1,-175.113925,-150)">
        <g transform="matrix(0.912717,0,0,0.912717,34.913284,34.913284)">
            <path d="M634.472,410.048C633.194,423.561 624.785,423.601 628.78,428.174C646.132,448.038 646.779,458.055 646.293,497.875C645.552,558.489 591.084,560.108 590.905,560.234C586.101,563.62 606.699,647.107 528.798,670.715C518.81,673.742 518.689,673.966 317.173,673.852C288.183,673.836 262.101,676.646 231.288,644.263C201.249,612.693 215.322,560.863 209.2,559.837C200.333,558.351 177.9,558.124 161.625,529.596C150.953,510.889 150.789,460.827 162.015,441.91C170.043,428.382 175.637,428.48 170.919,422.592C163.077,412.804 165.177,401.467 174.702,402.478C176.074,402.623 201.886,405.362 190.934,396.63C169.513,379.551 187.511,362.296 189.612,360.282C197.761,352.469 204.041,350.63 204.096,345.324C205.269,231.844 197.314,217.924 225.761,180.339C256.682,139.485 314.236,146.347 338.762,146.324C364.861,146.3 366.172,147.597 369.612,142.801C383.096,124.009 417.792,117.933 437.798,141.164C443.656,147.966 444.902,146.285 462.547,146.285C518.499,146.283 537.541,142.796 569.897,173.198C595.434,197.192 595.942,230.486 596.024,235.922C596.374,258.892 595.357,346.112 596.631,348.057C597.913,350.012 635.502,371.922 610.489,395.357C607.343,398.304 604.106,398.132 606.963,400.91C614.055,407.809 631.394,395.092 634.472,410.048ZM363.291,380.502C322.605,386.357 310.708,386.591 261.081,405.867C240.208,413.975 234.097,407.472 233.508,417.261C233.33,420.233 233.267,452.344 233.531,453.304C234.266,455.97 248.781,456.614 252.166,453.039C259.222,445.588 260.23,438.019 330.114,439.355C376.21,440.237 373.686,449.323 382.352,457.126C387.802,462.032 389.545,450.903 415.061,457.523C421.138,459.1 418.505,449.153 436.585,443.023C449.38,438.686 524.517,435.132 541.364,446.563C549.823,452.302 548.375,455.115 553.216,455.166C557.463,455.212 567.657,456.745 568.005,451.848C568.044,451.306 568.306,419.165 567.012,414.532C565.151,407.869 560.845,414.536 538.844,405.731C495.536,388.398 448.378,373.942 363.291,380.502ZM315.654,405.094C321.469,404.519 363.531,399.785 362.974,418.716C362.429,437.219 344.921,428.032 320.079,429.374C300.35,430.439 286.354,438.594 282.628,425.908C277.272,407.669 315.58,405.105 315.654,405.094ZM459.605,405.119C468.531,404.395 473.162,402.539 497.129,407.007C530.975,413.317 517.457,435.991 505.682,433.355C481.51,427.944 477.64,428.369 452.529,430.734C451.127,430.866 438.563,432.049 438.489,420.12C438.396,405.02 454.336,405.84 459.605,405.119ZM232.295,390.717C265.079,389.41 291.377,361.821 387.671,357.599C470.524,353.966 532.571,379.938 544.304,384.849C547.807,386.315 574.618,397.538 591.601,380.794C597.464,375.014 591.67,369.681 573.799,358.98C488.065,307.643 267.424,315.208 208.107,372.982C206.388,374.656 199.057,385.433 232.295,390.717ZM245.834,483.437C245.799,482.707 245.435,474.985 243.888,474.509C233.316,471.255 233.324,478.234 233.325,479.158C233.439,579.89 233.198,579.807 233.348,588.558C234.014,627.589 266.396,650.924 297.023,650.908C510.026,650.796 510.081,651.609 520.181,649.268C563.515,639.223 567.281,597.417 567.818,591.448C568.162,587.636 568.121,476.903 567.921,476.189C567.38,474.252 559.694,474.355 558.963,474.365C548.853,474.501 562.8,508.468 535.622,532.009C515.356,549.562 463.517,542.777 453.944,540.846C449.69,539.989 450.96,542.328 450.446,546.73C449.675,553.343 452.809,551.744 456.791,552.565C500.35,561.541 517.412,607.223 491.233,611.046C480.981,612.544 471.48,605.426 471.342,605.365C468.616,604.163 454.046,618.911 433.568,606.146C427.602,602.427 407.043,627.023 371.742,606.027C367.132,603.284 353.522,618.805 333.39,606.691C327.096,602.903 325.756,609.476 317.038,610.937C283.172,616.611 292.284,563.356 344.498,552.46C347.542,551.825 351.836,552.981 349.506,542.204C348.616,538.086 346.371,543.759 309.985,543.445C254.397,542.967 249.996,518.101 245.834,483.437ZM415.702,480.546C415.462,479.341 417.237,473.322 403.518,472.164C397.625,471.666 391.168,472.594 387.529,474.563C382.954,477.039 384.461,507.859 372.618,523.216C370.764,525.62 354.382,546.862 377.871,560.801C407.085,578.138 448.96,553.012 430.661,526.81C421.047,513.046 419.928,512.596 415.702,480.546ZM176.878,463.212C175.543,475.045 167.456,533.337 207.81,537.531C212.579,538.027 212.191,534.937 211.161,477.69C211.037,470.812 190.213,478.914 192.496,463.395C194.397,450.469 211.732,458.896 211.818,451.799C211.893,445.651 212.936,435.321 209.244,435.456C200.681,435.77 189.668,434.376 180.93,450.659C177.773,456.543 178.523,456.676 176.878,463.212ZM335.802,307.204C350.989,305.497 350.887,305.125 363.204,304.544C530.117,296.673 570.958,339.952 573.515,332.408C574.695,328.925 573.715,247.604 573.627,240.23C573.092,195.878 538.804,169.509 504.288,169.51C430.194,169.51 427.786,170.641 425.12,163.946C424.138,161.48 416.37,141.969 395.035,149.936C384.35,153.925 382.975,163.327 382.813,163.693C379.488,171.228 376.849,169.289 304.218,169.6C298.53,169.624 260.126,169.789 240.135,200.392C224.135,224.885 227.445,226.919 226.999,332.322C226.949,344.26 233.834,318.688 335.802,307.204ZM351.627,297.198C341.259,299.017 310.241,308.725 304.753,283.299C304.722,283.153 302.496,237.251 306.11,227.449C309.207,219.05 312.894,205.291 383.358,202.151C426.499,200.228 470.197,205.431 480.984,211.931C498.574,222.53 496.421,232.33 496.25,276.218C496.115,310.856 460.612,299.005 445.225,296.695C402.035,290.213 359.044,296.17 351.627,297.198ZM383.351,274.112C434.117,270.639 471.209,282.267 474.045,279.079C475.645,277.281 475.54,237.771 474.121,234.446C468.828,222.039 379.216,218.541 334.572,229.208C324.109,231.708 324.985,235.178 325.253,273.342C325.345,286.593 333.463,276.267 383.351,274.112ZM479.804,525.875C515.302,526.518 538.533,526.952 538.628,473.412C538.653,459.363 526.875,454.325 472.61,455.575C438.196,456.367 426.086,458.601 433.655,492.143C440.108,520.744 448.142,524.718 479.804,525.875ZM491.551,502.641C464.37,512.921 460.348,469.032 485.581,470.455C498.545,471.186 511.683,490.585 491.551,502.641ZM321.508,525.874C354.48,524.709 362.747,520.441 368.285,483.39C371.231,463.686 367.295,456.562 331.586,455.664C273.637,454.206 261.732,458.342 262.033,474.85C262.992,527.476 286.091,526.156 321.508,525.874ZM299.043,487.79C301.307,465.212 322.012,468.471 328.435,476.479C345.953,498.321 303.65,520.001 299.043,487.79ZM624.29,474.844C624.232,473.207 623.82,461.454 621.041,454.623C612.231,432.969 597.228,435.845 592.095,435.535C587.842,435.278 588.97,444.425 589.086,451.823C589.199,459.015 605.284,450.307 607.973,463.324C610.75,476.761 590.972,472.862 589.709,476.4C589.53,476.902 589.613,532.24 589.622,533.85C589.651,539.034 594.484,537.711 599.137,536.269C629.446,526.874 624.282,487.362 624.29,474.844Z"/>
        </g>
    </g>
</svg>
