<?xml version="1.0" encoding="UTF-8" standalone="no"?>
<!DOCTYPE svg PUBLIC "-//W3C//DTD SVG 1.1//EN" "http://www.w3.org/Graphics/SVG/1.1/DTD/svg11.dtd">
<svg width="1000" height="200" viewBox="0 0 1000 200" version="1.1" xmlns="http://www.w3.org/2000/svg" xmlns:xlink="http://www.w3.org/1999/xlink" xml:space="preserve" xmlns:serif="http://www.serif.com/" style="fill:#111827;fill-rule:evenodd;clip-rule:evenodd;stroke-linejoin:round;stroke-miterlimit:2;">
    <g transform="matrix(1,0,0,1,-1.413406,-9.31732)">
        <path d="M104.6,58.917L41.672,58.917L41.672,159.717L104.6,159.717C110.072,159.717 114.68,155.253 114.68,149.781L114.68,68.997C114.68,63.525 110.072,58.917 104.6,58.917ZM85.592,145.605L70.76,145.605L70.76,73.173L85.592,73.173L85.592,145.605Z" style="fill-rule:nonzero;"/>
    </g>
    <g transform="matrix(1,0,0,1,-1.413406,-9.31732)">
        <rect x="127.064" y="58.917" width="29.088" height="100.8" style="fill-rule:nonzero;"/>
    </g>
    <g transform="matrix(1,0,0,1,-1.413406,-9.31732)">
        <path d="M231.032,58.917L168.68,58.917L168.68,159.717L197.768,159.717L197.768,126.885L211.88,159.717L241.112,159.717L225.992,127.317L231.032,127.317C236.504,127.317 241.112,122.853 241.112,117.237L241.112,68.997C241.112,63.525 236.504,58.917 231.032,58.917ZM212.024,73.173L212.024,113.061L197.768,113.061L197.768,73.173L212.024,73.173Z" style="fill-rule:nonzero;"/>
    </g>
    <g transform="matrix(1,0,0,1,-1.413406,-9.31732)">
        <path d="M252.344,58.917L252.344,159.717L310.376,159.717L310.376,145.605L281.432,145.605L281.432,113.205L302.888,113.205L302.888,99.093L281.432,99.093L281.432,73.173L310.376,73.173L310.376,58.917L252.344,58.917Z" style="fill-rule:nonzero;"/>
    </g>
    <g transform="matrix(1,0,0,1,-1.413406,-9.31732)">
        <path d="M316.856,58.917L316.856,73.173L337.448,73.173L337.448,159.717L366.536,159.717L366.536,73.173L387.272,73.173L387.272,58.917L316.856,58.917Z" style="fill-rule:nonzero;"/>
    </g>
    <g transform="matrix(1,0,0,1,-1.413406,-9.31732)">
        <path d="M458.264,58.917L405.56,58.917C399.944,58.917 395.48,63.525 395.48,68.997L395.48,149.637C395.48,155.253 399.944,159.717 405.56,159.717L458.264,159.717C463.736,159.717 468.344,155.253 468.344,149.637L468.344,68.997C468.344,63.525 463.736,58.917 458.264,58.917ZM439.256,145.605L424.568,145.605L424.568,73.173L439.256,73.173L439.256,145.605Z" style="fill-rule:nonzero;"/>
    </g>
    <g transform="matrix(1,0,0,1,-1.413406,-9.31732)">
        <path d="M543.08,58.917L480.728,58.917L480.728,159.717L509.816,159.717L509.816,126.885L523.928,159.717L553.16,159.717L538.04,127.317L543.08,127.317C548.552,127.317 553.16,122.853 553.16,117.237L553.16,68.997C553.16,63.525 548.552,58.917 543.08,58.917ZM524.072,73.173L524.072,113.061L509.816,113.061L509.816,73.173L524.072,73.173Z" style="fill-rule:nonzero;"/>
    </g>
    <g transform="matrix(1,0,0,1,-10.413406,-9.31732)">
        <rect x="606.008" y="58.917" width="29.088" height="100.8" style="fill:rgb(110,231,183);fill-rule:nonzero;"/>
    </g>
    <g transform="matrix(-1,0,0,1,1357.265972,-9.31732)">
        <path d="M647.624,68.997C647.624,63.525 652.088,58.917 657.704,58.917L720.056,58.917L720.056,159.717L690.968,159.717L690.968,113.205L676.712,113.205L676.712,159.717L647.624,159.717L647.624,68.997ZM676.712,73.173L676.712,99.093L690.968,99.093L690.968,73.173L676.712,73.173Z" style="fill:rgb(110,231,183);"/>
    </g>
</svg>
